<?xml version="1.0" encoding="UTF-8"?>
<svg id="Layer_1" data-name="Layer 1" xmlns="http://www.w3.org/2000/svg" viewBox="0 0 160 80">
  <defs>
    <style>
      .cls-1 {
        fill: #683a22;
      }
    </style>
  </defs>
  <path class="cls-1" d="M25.58,53.51c1.1,1.86-.9,3.28-2.58-.32-1.33-2.86-2.94-2.52-4.01-5.24-1.07-2.72.34-5.82,3.47-7.05,2.87-1.13,5.19-.09,6.08.11.7.15,1.54.32,2.22.43,6.66,1,14.56-7.95,10.65-6.88s-12.97-3.65-13.46-4.13c-1.1-1.07-.37-7.88-3.61-11.65s.49,11.87-2.88,11.73-.75-16.01-3.64-11.46c-1.54,2.42-3.4,8.65-4.39,10.82-.19.41-.6.9-1.03,1.38-1.68,1.89-2.81,3.85-4.05,5.36-1.73,2.11-4.79,8.52-3.61,14.35,1.22,6.01,7.5,9.83,15.98,10.58,2.94.34,21.35,1.06,23.33-3.58,2.36-5.54-17.15-16.01-13.46-12,7.59,8.25-6.55,4.95-5.01,7.55Z"/>
  <g>
    <path class="cls-1" d="M60.55,38.84l-5.05-6.49-1.89,1.55c.04,1.21.1,2.52.16,3.93.01.51-.13.9-.43,1.17s-.66.42-1.07.44c-.41.02-.78-.09-1.11-.33-.33-.24-.51-.62-.54-1.15-.22-4.61-.31-9.1-.25-13.47.01-.51.18-.89.5-1.15s.69-.38,1.1-.37.77.14,1.08.4c.31.26.46.65.46,1.16-.03,1.9-.03,3.69,0,5.37,2.35-2.01,4.53-4.14,6.54-6.4.28-.3.59-.47.91-.51.32-.04.62.02.91.17.28.15.51.36.69.64.17.28.25.58.24.9-.01.32-.17.64-.45.95-1.47,1.68-2.96,3.21-4.49,4.6l5.17,6.65c.27.33.37.71.31,1.15-.04.46-.24.82-.58,1.07-.34.25-.73.36-1.15.33-.42-.03-.77-.23-1.06-.61Z"/>
    <path class="cls-1" d="M71.37,37.87c-.85,1.2-2.07,1.67-3.64,1.42-.87-.24-1.56-.61-2.09-1.12-.52-.51-.91-1.11-1.17-1.8-.25-.69-.41-1.42-.47-2.2-.04-.27-.05-.66-.02-1.17.03-.51.07-1.04.12-1.61s.11-1.09.17-1.57c.06-.49.1-.85.13-1.09.07-.49.28-.85.61-1.06.33-.21.69-.29,1.08-.25.39.04.72.21.99.49.27.28.37.67.31,1.17l-.16,1.17c-.04.31-.09.71-.15,1.2-.05.49-.09.96-.12,1.43-.03.46-.02.82.02,1.08.06.73.21,1.29.44,1.67.23.38.59.63,1.09.75.33.09.7.06,1.1-.08.4-.14.81-.54,1.21-1.18.09-.09.18-.16.27-.22.01-2.2,0-4.17-.02-5.91,0-.42.1-.76.31-1.01.21-.25.47-.43.77-.52s.62-.09.93-.01c.31.08.58.25.8.49.22.25.33.58.35,1,.03,2.22.03,5.22,0,9.01,0,.42-.16.79-.47,1.1-.31.3-.69.45-1.12.45-.85-.33-1.28-.88-1.28-1.64Z"/>
    <path class="cls-1" d="M86.29,38.95c-.31.24-.66.35-1.06.34s-.74-.15-1.02-.4c-.29-.25-.42-.62-.4-1.1,0-.39.02-.9.06-1.54.04-.64.06-1.25.08-1.85,0-.45-.02-.97-.07-1.56s-.13-1.07-.25-1.43c-.09-.28-.27-.52-.54-.71-.27-.19-.61-.3-1.01-.33-.42-.04-.8,0-1.16.15-.35.14-.61.34-.78.59-.06.19-.09.33-.1.39,0,.07-.01.17-.01.3,0,.52,0,1.46.02,2.81.01,1.36.02,2.4.02,3.1,0,.42-.1.75-.31,1-.21.25-.47.41-.79.49-.31.08-.63.08-.94,0s-.58-.25-.79-.49c-.21-.25-.31-.58-.31-1v-1.15c0-.51,0-1.09-.01-1.73,0-.64-.02-1.31-.04-1.99s-.04-1.33-.07-1.93c-.02-.61-.06-1.12-.1-1.54-.08-.54.03-.97.31-1.29.28-.32.65-.48,1.1-.48.81.04,1.28.43,1.41,1.17.69-.87,1.64-1.33,2.85-1.37,1.06.02,1.93.3,2.61.86s1.16,1.31,1.46,2.23c.11.34.19.75.26,1.22s.12.95.15,1.43.04.89.04,1.23c-.01.7-.04,1.38-.08,2.03-.04.65-.06,1.13-.06,1.45-.01.48-.18.84-.48,1.08Z"/>
    <path class="cls-1" d="M91.62,39.2c-.62-.16-1.14-.4-1.56-.7-.31-.25-.6-.59-.85-1.01l-.16-.27-.2-.36c-.13-.25-.2-.49-.2-.7,0-.39.16-.73.48-1.02s.69-.44,1.09-.44c.51,0,.91.22,1.21.67l.27.45.13.27c.09.18.26.32.52.43.39.12.73.18,1.01.18.21,0,.47-.02.79-.07.79-.16,1.21-.41,1.24-.74v-.09c0-.18-.08-.35-.25-.52-.19-.18-.64-.41-1.35-.7l-.99-.38c-.55-.19-.95-.35-1.19-.47-1.09-.48-1.8-1.06-2.13-1.75-.22-.45-.34-.89-.34-1.33,0-.36.07-.7.22-1.01.3-.73,1-1.33,2.09-1.77.72-.28,1.46-.43,2.22-.43.15,0,.37.02.67.04,1.32.13,2.47.65,3.46,1.55.31.27.47.61.47,1.03,0,.39-.14.74-.42,1.06s-.62.47-1.02.47c-.31,0-.63-.1-.94-.31l-.54-.4c-.25-.18-.44-.29-.56-.34-.45-.15-.88-.22-1.28-.22-.37,0-.7.04-.97.11-.19.07-.29.18-.29.31,0,.09.05.17.16.22.09.06.25.14.47.25.27.12.66.26,1.17.43.34.1.7.24,1.06.4.24.1.51.22.81.34.28.13.58.31.9.54.49.33.88.74,1.17,1.22.28.49.43,1.03.43,1.63,0,.19,0,.34-.02.45-.13.93-.56,1.65-1.27,2.16-.71.51-1.56.84-2.55.99-.33.04-.67.07-1.03.07-.66,0-1.3-.08-1.92-.25Z"/>
    <path class="cls-1" d="M103.66,39.04c-.17-.06-.32-.13-.47-.22l-.58-.34c-.6-.34-1.05-.67-1.35-.97-.25-.33-.41-.65-.47-.98-.06-.32-.1-.8-.11-1.43v-.45c-.02-.43-.02-1.44-.02-3.03,0-.64,0-1.13.02-1.46h-.43c-.38,0-.7-.13-.98-.39-.28-.26-.42-.6-.42-1s.14-.77.43-1.04c.28-.28.61-.42.99-.42h.4l.02-.97v-.7c.01-.48.18-.85.48-1.11.31-.26.66-.39,1.07-.39s.79.14,1.11.43c.32.28.48.67.48,1.17l-.04,1.53h.83c.54,0,.94.14,1.21.43.27.28.4.64.4,1.08s-.14.77-.43,1.07-.7.44-1.26.44h-.83c0,.61,0,1.07-.02,1.37-.01.31-.02.76-.02,1.35,0,.96.03,1.79.09,2.49.06.06.1.09.11.09l.22.16.18.09.2.11.18.09c.27.12.5.25.7.4.46.31.7.73.7,1.26,0,.42-.15.8-.45,1.13s-.66.51-1.08.51c-.3,0-.59-.1-.88-.29Z"/>
  </g>
  <g>
    <path class="cls-1" d="M60.54,60.43l-5.05-6.49-1.89,1.55c.04,1.21.1,2.52.16,3.93.01.51-.13.9-.43,1.17s-.66.42-1.07.44c-.41.02-.78-.09-1.11-.33-.33-.24-.51-.62-.54-1.15-.22-4.61-.31-9.1-.25-13.47.01-.51.18-.89.5-1.14.32-.25.69-.38,1.1-.37.41,0,.77.14,1.08.4.31.26.46.65.46,1.16-.03,1.9-.03,3.69,0,5.37,2.35-2.01,4.53-4.14,6.54-6.4.28-.3.59-.47.91-.51.32-.04.62.02.91.17.28.15.51.36.69.64.17.28.25.58.24.9s-.17.64-.45.95c-1.47,1.68-2.96,3.21-4.49,4.6l5.17,6.65c.27.33.37.71.31,1.15-.04.46-.24.82-.58,1.07-.34.25-.73.36-1.15.33s-.77-.23-1.06-.61Z"/>
    <path class="cls-1" d="M65.24,59.24c-.75-.94-1.2-2.02-1.35-3.23-.09-.75-.06-1.5.08-2.27s.4-1.48.76-2.16c.37-.67.84-1.26,1.43-1.75.34-.3.79-.53,1.32-.7.01,0,.17-.04.47-.13.12-.03.21-.06.27-.09.42-.17.84-.15,1.26.04,1.41.22,2.35.46,2.83.7.67.33,1.22.83,1.65,1.49.43.67.72,1.4.88,2.19.16.79.17,1.54.03,2.25-.08.73-.24,1.44-.49,2.11-.25.69-.64,1.34-1.17,1.95-.52.61-1.14,1.05-1.84,1.3-.85.3-1.88.33-3.08.09-1.3-.25-2.32-.85-3.05-1.8ZM70.34,57.98c.31-.12.58-.36.8-.72.22-.36.38-.78.49-1.27.11-.49.17-.97.16-1.46s-.08-.92-.21-1.29c-.13-.37-.34-.63-.61-.76-.3-.13-.62-.22-.98-.26-.35-.04-.74-.11-1.18-.21-.25.07-.39.11-.4.11l-.22.09c-.42.36-.74.85-.97,1.48s-.29,1.28-.2,1.95c.15,1.33.77,2.11,1.86,2.33.64.12,1.13.12,1.46,0Z"/>
    <path class="cls-1" d="M79.67,60.75c-.32.25-.69.38-1.1.37-.41,0-.77-.14-1.08-.4-.31-.26-.46-.65-.46-1.16.03,0,.04-2.16.02-6.47l-.02-6.87c0-.42.1-.75.31-1,.21-.25.47-.41.79-.49.31-.08.63-.08.94,0,.31.08.58.25.79.49.21.25.31.58.31,1,0,1.2,0,2.69.02,4.47v4.7c0,.83,0,1.61-.01,2.35,0,.73-.01,1.36-.01,1.86-.01.51-.18.89-.5,1.15Z"/>
    <path class="cls-1" d="M85.3,60.75c-.32.25-.69.38-1.1.37-.41,0-.77-.14-1.08-.4-.31-.26-.46-.65-.46-1.16.03,0,.04-2.16.02-6.47l-.02-6.87c0-.42.1-.75.31-1,.21-.25.47-.41.79-.49.31-.08.63-.08.94,0,.31.08.58.25.79.49.21.25.31.58.31,1,0,1.2,0,2.69.02,4.47v4.7c0,.83,0,1.61-.01,2.35,0,.73-.01,1.36-.01,1.86-.01.51-.18.89-.5,1.15Z"/>
    <path class="cls-1" d="M90.73,60.32c-.9-.51-1.58-1.19-2.05-2.04s-.71-1.8-.71-2.83c0-1.3.24-2.43.72-3.39.48-.94,1.17-1.69,2.07-2.25.9-.55,1.92-.83,3.05-.83s2.17.24,3.01.72c.82.48,1.44,1.13,1.86,1.94.42.82.63,1.73.63,2.73,0,.51-.17.91-.49,1.19s-.77.45-1.32.49c-1.12.1-2.12.16-2.99.16-.82,0-1.71-.02-2.65-.07l-.79-.02c.09.73.38,1.31.87,1.72.49.41,1.22.6,2.21.57.45-.01.81-.07,1.08-.17s.51-.24.72-.44c.22-.22.43-.42.63-.57.19-.16.46-.24.81-.24.39,0,.71.13.98.39.26.26.39.57.39.91,0,.48-.24.94-.72,1.37-.48.43-1.1.78-1.85,1.03-.76.25-1.52.38-2.3.38-1.2,0-2.25-.25-3.14-.76ZM94.05,53.96c1.03-.01,1.79-.08,2.27-.2-.03-.64-.22-1.16-.57-1.55-.35-.39-.98-.58-1.9-.56-.76.01-1.38.19-1.86.52-.48.33-.77.88-.88,1.66.88.12,1.86.17,2.94.13Z"/>
    <path class="cls-1" d="M105.57,56.64l-.9.85s-.06.04-.09.07v1.82c-.01.51-.18.89-.5,1.15-.32.25-.69.38-1.1.37-.41,0-.77-.14-1.08-.4s-.46-.65-.46-1.16c.04-2.69-.03-7.01-.22-12.94-.02-.52.13-.92.43-1.19.3-.27.65-.41,1.07-.43.41-.02.78.1,1.11.35s.51.62.54,1.13c.09,2.62.16,4.96.2,7.01,1.17-1.14,2.4-2.39,3.68-3.77.28-.3.59-.47.91-.51.32-.04.62.02.91.17.28.15.51.36.68.64.17.28.25.58.24.9-.01.32-.16.64-.45.96l-2.67,2.74c.84,1.33,1.87,2.63,3.1,3.88.28.29.44.59.46.91s-.05.62-.21.9c-.16.28-.39.49-.67.65-.28.16-.59.22-.91.19s-.62-.19-.91-.49c-1.24-1.27-2.29-2.54-3.14-3.79Z"/>
    <path class="cls-1" d="M116.78,60.63c-.17-.06-.32-.13-.47-.22l-.58-.34c-.6-.34-1.05-.67-1.35-.97-.25-.33-.41-.65-.47-.98-.06-.32-.1-.8-.11-1.43v-.45c-.02-.43-.02-1.44-.02-3.03,0-.64,0-1.13.02-1.46h-.43c-.38,0-.7-.13-.98-.39-.28-.26-.42-.59-.42-1s.14-.77.43-1.04c.28-.28.61-.42.99-.42h.4l.02-.97v-.7c.01-.48.18-.85.48-1.11s.66-.39,1.07-.39.79.14,1.11.43c.32.29.48.67.48,1.17l-.04,1.53h.83c.54,0,.94.14,1.21.43s.4.64.4,1.08-.14.77-.43,1.07-.7.44-1.26.44h-.83c0,.61,0,1.07-.02,1.37-.01.31-.02.76-.02,1.35,0,.96.03,1.79.09,2.49.06.06.1.09.11.09l.22.16.18.09.2.11.18.09c.27.12.5.25.7.4.46.31.7.73.7,1.26,0,.42-.15.8-.45,1.13s-.66.5-1.08.5c-.3,0-.59-.1-.88-.29Z"/>
    <path class="cls-1" d="M123.99,46.03c.03.34-.04.65-.2.94-.16.29-.39.52-.68.7s-.61.24-.94.21c-.34-.03-.66-.19-.95-.49-.3-.3-.46-.62-.49-.97-.03-.34.04-.66.21-.94.17-.28.4-.51.69-.68.28-.17.59-.24.93-.21.34.03.66.2.95.52.3.28.46.59.49.93ZM120.89,50.44c.01-.42.13-.75.35-.99s.48-.39.8-.46.63-.05.94.04c.31.1.57.27.77.53s.29.59.28,1.01c-.09,2.8-.11,5.71-.07,8.74,0,.51-.15.9-.46,1.16s-.67.4-1.08.4c-.41,0-.78-.12-1.1-.37-.32-.25-.49-.64-.5-1.15-.04-3.17-.02-6.15.07-8.92Z"/>
    <path class="cls-1" d="M128.75,59.71s0-.08-.02-.11c-.96-3.16-2.03-5.96-3.21-8.4-.24-.43-.28-.83-.13-1.19s.4-.64.74-.83c.34-.19.7-.25,1.08-.18.37.08.67.33.9.76.82,1.71,1.63,3.61,2.42,5.7.87-2.2,1.73-4.09,2.58-5.68.24-.39.54-.62.91-.69s.71,0,1.02.18c.31.19.53.46.64.81.11.35.03.75-.24,1.2l-.47,1.01-1.59,3.32-.36.79-.38.9c-.18.42-.29.7-.34.83-.06.15-.19.47-.38.97l-.36.88c-.17.38-.43.64-.8.8-.37.16-.75.16-1.13.01-.46-.21-.76-.57-.88-1.08Z"/>
    <path class="cls-1" d="M139.1,60.32c-.9-.51-1.58-1.19-2.05-2.04s-.71-1.8-.71-2.83c0-1.3.24-2.43.72-3.39.48-.94,1.17-1.69,2.07-2.25.9-.55,1.92-.83,3.05-.83s2.17.24,3.01.72c.82.48,1.44,1.13,1.86,1.94.42.82.63,1.73.63,2.73,0,.51-.17.91-.49,1.19s-.77.45-1.32.49c-1.12.1-2.12.16-2.99.16-.82,0-1.71-.02-2.65-.07l-.79-.02c.09.73.38,1.31.87,1.72.49.41,1.22.6,2.21.57.45-.01.81-.07,1.08-.17s.51-.24.72-.44c.22-.22.43-.42.63-.57.19-.16.46-.24.81-.24.39,0,.71.13.98.39.26.26.39.57.39.91,0,.48-.24.94-.72,1.37-.48.43-1.1.78-1.85,1.03-.76.25-1.52.38-2.3.38-1.2,0-2.25-.25-3.14-.76ZM142.42,53.96c1.03-.01,1.79-.08,2.27-.2-.03-.64-.22-1.16-.57-1.55-.35-.39-.98-.58-1.9-.56-.76.01-1.38.19-1.86.52-.48.33-.77.88-.88,1.66.88.12,1.86.17,2.94.13Z"/>
    <path class="cls-1" d="M152.93,60.63c-.17-.06-.32-.13-.47-.22l-.58-.34c-.6-.34-1.05-.67-1.35-.97-.25-.33-.41-.65-.47-.98-.06-.32-.1-.8-.11-1.43v-.45c-.02-.43-.02-1.44-.02-3.03,0-.64,0-1.13.02-1.46h-.43c-.38,0-.7-.13-.98-.39-.28-.26-.42-.59-.42-1s.14-.77.43-1.04c.28-.28.61-.42.99-.42h.4l.02-.97v-.7c.01-.48.18-.85.48-1.11s.66-.39,1.07-.39.79.14,1.11.43c.32.29.48.67.48,1.17l-.04,1.53h.83c.54,0,.94.14,1.21.43s.4.64.4,1.08-.14.77-.43,1.07-.7.44-1.26.44h-.83c0,.61,0,1.07-.02,1.37-.01.31-.02.76-.02,1.35,0,.96.03,1.79.09,2.49.06.06.1.09.11.09l.22.16.18.09.2.11.18.09c.27.12.5.25.7.4.46.31.7.73.7,1.26,0,.42-.15.8-.45,1.13s-.66.5-1.08.5c-.3,0-.59-.1-.88-.29Z"/>
  </g>
</svg>