<?xml version="1.0" encoding="UTF-8"?>
<svg id="Layer_1" data-name="Layer 1" xmlns="http://www.w3.org/2000/svg" xmlns:xlink="http://www.w3.org/1999/xlink" viewBox="0 0 160 160">
  <defs>
    <style>
      .cls-1 {
        stroke: #fff;
      }

      .cls-1, .cls-2 {
        fill: none;
        stroke-miterlimit: 10;
      }

      .cls-3 {
        fill: #683a22;
      }

      .cls-2 {
        stroke: #683a22;
        stroke-width: .75px;
      }

      .cls-4 {
        clip-path: url(#clippath);
      }
    </style>
    <clipPath id="clippath">
      <circle class="cls-3" cx="80" cy="80" r="41.72"/>
    </clipPath>
  </defs>
  <g>
    <circle class="cls-3" cx="80" cy="80" r="41.72"/>
    <g class="cls-4">
      <path class="cls-1" d="M34.55,119.28c2.97,5.04-2.45,8.89-7-.87-3.61-7.75-7.96-6.84-10.87-14.21-2.91-7.39.92-15.78,9.4-19.11,7.78-3.06,14.08-.24,16.48.29,1.89.41,4.18.88,6.03,1.16,18.07,2.72,39.49-21.57,28.89-18.65-10.6,2.93-35.18-9.9-36.52-11.2-2.99-2.9-1.02-21.36-9.79-31.58-8.78-10.22,1.33,32.18-7.81,31.81-9.14-.37-2.03-43.42-9.87-31.08-4.17,6.57-9.22,23.46-11.91,29.35-.51,1.12-1.62,2.43-2.79,3.75-4.55,5.14-7.61,10.43-10.98,14.53-4.7,5.73-13,23.09-9.78,38.91,3.32,16.3,20.35,26.65,43.34,28.69,7.96.93,57.91,2.87,63.26-9.71,6.39-15.03-46.5-43.42-36.5-32.55,20.58,22.37-17.76,13.41-13.6,20.47Z"/>
      <path class="cls-1" d="M113.41,46c-2.97-5.04,2.45-8.89,7,.87,3.61,7.75,7.96,6.84,10.87,14.21,2.91,7.39-.92,15.78-9.4,19.11-7.78,3.06-14.08.24-16.48-.29-1.89-.41-4.18-.88-6.03-1.16-18.07-2.72-39.49,21.57-28.89,18.65,10.6-2.93,35.18,9.9,36.52,11.2,2.99,2.9,1.02,21.36,9.79,31.58,8.78,10.22-1.33-32.18,7.81-31.81,9.14.37,2.03,43.42,9.87,31.08,4.17-6.57,9.22-23.46,11.91-29.35.51-1.12,1.62-2.43,2.79-3.75,4.55-5.14,7.61-10.43,10.98-14.53,4.7-5.73,13-23.09,9.78-38.91-3.32-16.3-20.35-26.65-43.34-28.69-7.96-.93-57.91-2.87-63.26,9.71-6.39,15.03,46.5,43.42,36.5,32.55-20.58-22.37,17.76-13.41,13.6-20.47Z"/>
    </g>
  </g>
  <circle class="cls-2" cx="80" cy="80" r="70.67"/>
  <g>
    <path class="cls-3" d="M55.26,29.14c-.12.06-.25.06-.38.01s-.22-.13-.28-.25c-.07-.06-.12-.12-.16-.2-.18-.42-.45-1.01-.81-1.78-.36-.77-.6-1.3-.73-1.58-.08-.17-.18-.37-.29-.59-.11-.22-.21-.45-.31-.67-.1-.22-.18-.43-.23-.63-.03-.09-.03-.18,0-.28s.08-.17.15-.24c.04-.11.12-.19.23-.25.18-.09.4-.2.65-.32.26-.12.53-.25.82-.4.29-.14.58-.28.86-.41.28-.13.53-.25.75-.36.22-.1.39-.19.52-.24.15-.07.29-.08.4-.02.12.05.21.14.26.26s.07.24.04.37-.12.22-.28.29c-.16.08-.39.18-.68.32s-.6.29-.93.44c-.34.16-.66.31-.97.46-.31.15-.57.28-.77.37.02.09.13.32.31.69.18.38.31.64.38.78l.17.37c.29-.16.6-.31.94-.47.22-.1.47-.22.73-.33.26-.12.51-.23.75-.34.24-.11.44-.2.61-.28.15-.07.29-.08.4-.02.12.06.21.14.26.26.06.12.07.24.04.37s-.12.22-.28.29c-.21.1-.53.25-.96.44-.22.1-.46.21-.72.33s-.52.24-.76.36c-.25.12-.44.22-.6.31.4.86.68,1.47.85,1.84,1.48-.67,2.62-1.19,3.42-1.58.14-.07.28-.08.4-.02.12.05.21.14.27.26.06.12.07.24.04.37-.03.12-.12.22-.27.29-.81.39-2.1.99-3.86,1.77Z"/>
    <path class="cls-3" d="M63.13,25.75c-.42-.06-.77-.22-1.08-.46-.3-.25-.51-.57-.63-.96-.05-.15-.03-.29.04-.41.07-.12.17-.2.31-.25.1-.03.2-.03.31.01.1.04.18.12.24.24.34.8.99,1.05,1.96.75.47-.14.8-.35,1.01-.64.21-.29.26-.59.16-.91-.06-.19-.2-.32-.42-.4-.22-.07-.51-.11-.86-.12l-.33-.02c-.7-.02-1.2-.05-1.52-.1-.9-.15-1.46-.58-1.68-1.29-.1-.32-.09-.66.03-1.01.12-.35.33-.68.64-.97.31-.29.69-.51,1.15-.65.47-.14.92-.18,1.34-.12.42.06.78.2,1.07.43.29.23.49.5.58.83.05.17.04.31-.02.43-.06.12-.16.2-.3.24-.13.04-.25.03-.37-.04s-.2-.17-.25-.33c-.05-.16-.16-.3-.34-.41-.19-.1-.41-.17-.67-.19-.26-.02-.53,0-.8.09-.47.14-.8.33-.98.56-.18.23-.23.49-.16.78.04.16.13.27.27.36s.33.15.59.21c.24.05.48.08.74.1.26.02.6.04,1.02.05.56.02,1.04.12,1.42.3.39.19.65.5.78.94.12.41.11.81-.04,1.19-.15.39-.39.72-.73,1.01s-.74.5-1.18.64c-.45.14-.89.17-1.31.1Z"/>
    <path class="cls-3" d="M72.21,23.63c-.09.09-.2.15-.33.17-.13.02-.25,0-.37-.08s-.18-.18-.21-.34c-.03-.23-.18-1.16-.46-2.79-.2-1.19-.33-2.12-.39-2.77-.72.11-1.32.21-1.81.31-.16.03-.3,0-.4-.07-.1-.08-.16-.19-.19-.31-.02-.13,0-.25.06-.37.06-.12.17-.19.33-.22.56-.11,1.35-.24,2.36-.4,1.01-.16,1.79-.28,2.36-.38.16-.03.29,0,.39.09.1.08.16.19.19.32.02.13,0,.25-.06.36-.06.11-.18.18-.34.21-.47.08-1.1.19-1.89.32.06.64.18,1.56.38,2.75.28,1.64.43,2.58.46,2.82.03.16,0,.29-.09.39Z"/>
    <path class="cls-3" d="M84.06,23.09s-.07,0-.16,0c-.08,0-.17,0-.27,0-.09,0-.17,0-.23,0-.17,0-.31,0-.41-.01-.07,0-.12,0-.15,0h-.07c-.05,0-.11-.02-.17-.04-.16-.08-.32-.19-.47-.33-.15-.15-.23-.33-.26-.54-.03-.23.04-.46.21-.71.1-.15.26-.33.47-.52.17-.15.59-.49,1.28-1.02.58-.45,1-.8,1.25-1.05.31-.32.48-.57.49-.75.02-.33-.04-.57-.18-.74-.15-.17-.35-.26-.61-.29-.28-.02-.55.04-.82.18-.26.14-.46.35-.59.61,0,.03-.02.07-.03.14-.03.21-.04.31-.04.32-.04.16-.11.27-.22.33-.11.06-.23.08-.36.06-.12-.02-.23-.09-.31-.19-.08-.1-.12-.24-.09-.4,0-.03.02-.08.02-.13,0-.06.01-.1.02-.12.02-.17.06-.3.11-.41.14-.32.34-.58.6-.8s.54-.37.85-.47.62-.14.94-.11c.35.03.65.14.92.32.27.18.47.42.62.72s.2.66.17,1.06c-.04.43-.3.89-.78,1.38-.27.27-.72.65-1.34,1.14-.65.5-1.06.82-1.23.97-.15.14-.25.26-.32.35,0,0-.01.02-.01.03.01.01.03.03.06.03h.07c.09,0,.23.01.4.02.06,0,.14,0,.24,0,.1,0,.19,0,.27,0,.08,0,.13,0,.16,0,.74.03,1.61.1,2.61.22.17.02.28.08.36.19.07.11.1.23.08.36-.02.13-.07.24-.17.33-.09.09-.22.13-.38.11-.98-.12-1.83-.19-2.53-.22Z"/>
    <path class="cls-3" d="M90.56,23.19c-.38-.57-.56-1.29-.55-2.16,0-.37.04-.75.14-1.16.11-.4.24-.78.4-1.13.16-.35.39-.67.67-.96.29-.29.6-.5.95-.64.06-.02.13-.04.2-.06s.15-.03.21-.04l.18-.03c.05,0,.09,0,.09,0,.2-.03.35.03.47.19.08,0,.19.03.34.08.14.04.24.07.29.08.54.24.9.76,1.08,1.55.15.65.15,1.37,0,2.14-.15.8-.41,1.47-.79,2.02-.48.68-1.05,1.04-1.72,1.07-.84.05-1.5-.26-1.96-.96ZM93.43,22.5c.3-.43.51-.97.63-1.63.12-.64.12-1.22,0-1.73-.11-.47-.28-.75-.51-.85-.12-.05-.24-.08-.38-.09-.13,0-.28-.03-.43-.06-.07-.01-.13-.04-.19-.08,0,0-.01,0-.02,0-.29.11-.56.32-.79.62s-.41.65-.54,1.06c-.13.41-.2.84-.21,1.29,0,.66.12,1.19.39,1.58.25.38.61.56,1.08.53.35-.02.67-.24.96-.66Z"/>
    <path class="cls-3" d="M99.14,25.94s-.07-.02-.15-.04-.17-.05-.25-.08c-.09-.03-.16-.05-.22-.07-.17-.05-.3-.09-.39-.12-.07-.01-.11-.03-.14-.05l-.07-.02c-.05-.02-.1-.04-.15-.08-.14-.12-.26-.26-.36-.44s-.14-.38-.1-.59c.03-.23.17-.44.39-.63.14-.12.34-.25.59-.38.2-.1.71-.31,1.5-.64.68-.28,1.17-.5,1.49-.68.39-.23.61-.43.68-.59.11-.31.12-.56.02-.76-.1-.2-.27-.35-.51-.44-.26-.1-.54-.11-.83-.04-.29.07-.54.21-.73.43-.01.02-.04.07-.06.13-.08.19-.12.29-.12.3-.08.14-.18.23-.31.26-.13.03-.25.02-.36-.04-.12-.06-.2-.14-.25-.26-.05-.12-.05-.26.02-.41.02-.03.04-.07.06-.12s.04-.09.05-.11c.07-.15.14-.28.22-.37.22-.27.49-.47.79-.61.3-.14.62-.21.95-.22.33-.01.64.04.93.14.32.12.59.31.8.55.21.24.34.53.4.86s.02.68-.12,1.07c-.15.4-.52.77-1.12,1.12-.33.19-.87.44-1.6.74-.76.31-1.24.51-1.44.61-.18.09-.31.18-.4.25,0,0-.01.01-.02.03,0,.02.02.03.05.05l.07.02c.09.03.21.07.38.12.06.02.13.04.22.07.09.03.18.05.26.08.08.02.13.04.15.04.71.22,1.52.53,2.46.92.16.06.25.15.29.28.04.12.03.25-.02.37-.05.12-.13.21-.25.27-.12.06-.25.07-.4,0-.91-.38-1.71-.68-2.38-.89Z"/>
    <path class="cls-3" d="M105.28,27.05c-.05-.46,0-.9.12-1.33.13-.43.32-.83.55-1.22s.52-.73.83-1.02c.33-.31.7-.55,1.09-.72.39-.17.79-.25,1.18-.24.92.06,1.64.61,2.15,1.66.07.15.08.28.03.41s-.14.21-.26.27c-.12.06-.24.07-.37.04-.13-.03-.23-.12-.3-.26-.34-.7-.78-1.07-1.31-1.1-.5-.02-1.02.21-1.54.69-.25.23-.46.48-.64.77.55-.15,1.04-.18,1.47-.08.17.04.35.12.53.24.18.12.35.25.51.41s.28.3.37.45c.27.41.41.83.41,1.24,0,.42-.11.78-.32,1.09s-.48.57-.82.75-.7.29-1.08.31c-.38.02-.77-.05-1.15-.22-.38-.17-.72-.47-1-.89-.26-.38-.41-.79-.46-1.25ZM107.85,28.41c.22,0,.44-.07.64-.18.3-.18.49-.42.58-.71s.02-.61-.21-.95c-.06-.08-.14-.17-.24-.27s-.2-.19-.31-.26c-.1-.07-.19-.12-.27-.13-.17-.04-.34-.05-.49-.04-.15.02-.31.05-.48.09l-.78.26c-.12.6-.03,1.1.25,1.5.18.25.38.43.6.54.23.11.46.16.68.15Z"/>
    <path class="cls-3" d="M116.22,34.49c-.1.11-.23.18-.38.2-.15.02-.29-.01-.42-.09s-.2-.21-.22-.39c-.03-.2.01-.35.12-.45.1-.1.23-.17.38-.19s.29,0,.41.09c.12.08.2.21.22.39.03.19,0,.34-.1.45Z"/>
    <path class="cls-3" d="M122.1,40.39c-.09-.1-.13-.22-.12-.36,0-.14.06-.25.16-.34.03-.08.08-.15.15-.21.34-.29.83-.73,1.47-1.3.63-.57,1.07-.96,1.3-1.16.14-.13.31-.28.49-.45.18-.17.36-.33.55-.5.19-.16.36-.3.53-.41.08-.05.17-.08.27-.08.1,0,.19.03.27.08.12,0,.22.06.31.15.14.14.31.32.5.53s.4.43.62.67.43.47.65.7c.21.23.4.43.56.62.17.18.29.32.38.42.11.12.16.25.14.38-.02.13-.08.24-.18.33-.1.09-.21.14-.34.14-.13,0-.25-.05-.36-.18-.12-.13-.29-.32-.51-.55-.22-.24-.45-.49-.7-.76-.25-.27-.49-.54-.73-.79-.24-.25-.43-.46-.58-.63-.08.05-.27.21-.57.5-.31.29-.52.48-.64.59l-.3.28c.23.23.48.48.73.76.17.18.34.38.53.6.19.21.37.42.55.62.17.2.32.37.45.5.11.12.16.25.14.38s-.08.24-.18.33c-.1.09-.21.14-.34.14-.13,0-.25-.05-.36-.18-.16-.17-.39-.43-.7-.79-.16-.18-.33-.38-.53-.6-.19-.21-.38-.42-.57-.62-.19-.2-.34-.36-.47-.48-.7.63-1.21,1.09-1.51,1.35,1.07,1.22,1.91,2.16,2.52,2.81.11.12.15.24.14.37-.02.13-.07.24-.17.34-.1.09-.21.14-.34.15s-.25-.05-.36-.17c-.61-.66-1.56-1.71-2.83-3.17Z"/>
    <path class="cls-3" d="M129.88,50.61c-.13-.14-.17-.31-.12-.49.08-.27.19-.57.31-.88.12-.32.23-.58.33-.8l.39-.85.35-.78c.34-.76.67-1.6.99-2.52-.47.3-1.15.76-2.03,1.38-.89.62-1.55,1.06-1.98,1.35-.14.09-.27.12-.4.08-.12-.04-.22-.11-.3-.22s-.1-.23-.09-.36c.01-.13.09-.24.23-.33.33-.22,1.08-.73,2.25-1.54,1.16-.8,2.06-1.4,2.71-1.79.09-.05.19-.09.3-.11.1-.02.21-.02.34.01.12.05.21.13.28.26.07.12.08.25.04.38-.47,1.44-.94,2.71-1.43,3.81l-.32.7-.36.8-.28.68c1.87-1.19,3.26-2.09,4.16-2.71.13-.09.26-.11.39-.08s.23.11.3.22c.08.11.11.23.1.36-.01.13-.09.24-.23.33-.69.47-2.42,1.6-5.2,3.38-.11.07-.24.09-.37.06s-.24-.1-.31-.21c-.03-.04-.04-.08-.05-.12Z"/>
    <path class="cls-3" d="M134.03,58.79c0-.11.03-.21.09-.3.06-.09.15-.15.26-.19.2-.07,1.19-.4,2.97-.99.29-.1.75-.27,1.38-.52.61-.25,1.1-.42,1.45-.52.13-.04.26-.03.38.04s.2.16.24.29v.04c.07.05.11.1.13.16.09.19.16.35.21.48.06.13.11.26.16.39.05.13.11.3.19.51.11.31.18.58.22.81.03.24.05.5.05.8s-.04.58-.12.84c-.17.55-.46,1.02-.89,1.4-.43.38-.92.66-1.48.84-.54.17-1.1.23-1.67.19-.57-.05-1.08-.22-1.54-.51-.54-.34-.99-.9-1.33-1.68-.1-.23-.22-.54-.36-.93-.15-.42-.25-.71-.31-.86-.04-.09-.05-.19-.03-.29ZM135.13,59.1l.18.5c.13.37.24.66.33.86.25.56.56.95.93,1.19.32.2.69.32,1.12.35s.85-.01,1.27-.15c.42-.13.78-.33,1.08-.59.31-.28.51-.6.62-.96.09-.29.11-.61.08-.96-.04-.35-.12-.68-.24-.99-.12-.31-.26-.64-.42-1.01-.18.06-.51.18-.98.37-.68.27-1.15.45-1.43.54-.19.07-.45.16-.79.27-.18.06-.38.12-.59.19-.22.07-.43.14-.63.21-.21.07-.37.13-.51.17Z"/>
    <path class="cls-3" d="M136.75,67.62c-.02-.13,0-.25.08-.37.08-.11.19-.18.32-.21.07-.05.15-.09.23-.11.45-.07,1.09-.18,1.93-.34.84-.16,1.41-.26,1.71-.31.19-.04.41-.08.65-.13s.48-.09.73-.14c.24-.04.47-.07.67-.07.09,0,.18.02.27.07.08.05.15.12.19.21.09.07.16.17.19.29.04.2.09.43.15.71.06.28.12.58.18.89.06.32.12.63.18.93s.11.58.16.82.08.43.11.56c.03.16,0,.3-.08.4-.08.1-.19.16-.32.19-.13.02-.25,0-.37-.06s-.19-.18-.22-.34c-.03-.18-.08-.42-.14-.74-.06-.31-.13-.65-.2-1.02-.07-.36-.14-.71-.21-1.05s-.13-.62-.17-.84c-.1,0-.35.04-.75.13-.41.08-.7.14-.85.17l-.4.08c.08.32.15.66.22,1.03.05.24.09.5.14.79.05.28.1.55.14.81.04.26.08.48.12.66.03.16,0,.3-.08.4s-.19.16-.32.19-.25,0-.37-.06c-.11-.06-.19-.18-.22-.34-.04-.23-.1-.57-.18-1.03-.04-.24-.08-.5-.14-.78-.05-.29-.11-.56-.16-.83-.05-.27-.1-.49-.15-.65-.93.17-1.6.3-2,.36.27,1.6.5,2.84.68,3.71.03.16,0,.29-.08.39-.08.1-.19.17-.32.2-.13.03-.25.01-.37-.05-.11-.06-.18-.17-.22-.34-.18-.88-.43-2.28-.75-4.18Z"/>
    <path class="cls-3" d="M137.87,75.95c0-.13.04-.24.13-.34s.2-.15.33-.17c.03,0,.06-.01.09-.01.39-.02,1.28-.08,2.69-.17,1.41-.09,2.56-.16,3.45-.2.17,0,.29.04.38.13.09.1.13.21.14.34,0,.13-.03.25-.11.36-.08.1-.2.16-.37.17-.67.03-1.32.07-1.94.11-.4.02-.83.04-1.3.08-.47.03-.92.07-1.36.09-.44.03-.81.05-1.12.06,0,.35.04.88.08,1.6.05.71.07,1.25.08,1.63,0,.17-.04.29-.13.38-.1.08-.21.13-.34.13s-.25-.04-.36-.12c-.1-.08-.16-.2-.17-.36,0-.36-.04-.98-.11-1.86-.05-.87-.08-1.48-.08-1.85Z"/>
    <path class="cls-3" d="M137.57,87.42c-.01-.13.01-.25.08-.37.07-.12.17-.2.29-.24.12-.04.26-.02.4.07.3.19.76.44,1.38.77.62.32,1.04.55,1.25.68.12.07.56.33,1.3.8.74.44,1.34.79,1.8,1.05.12.07.21.17.25.3.04.13.03.26-.04.38-.03.06-.07.1-.12.14-.07.12-.17.2-.31.23l-6.48,1.42c-.17.03-.3,0-.41-.07-.1-.08-.17-.19-.2-.32s-.01-.26.04-.37.17-.19.33-.23l2.04-.41c.03-.27.05-.42.06-.46.12-.89.22-1.59.31-2.1-.82-.44-1.4-.76-1.73-.96-.15-.09-.23-.19-.24-.33ZM140.23,91.02l2.32-.53-2.06-1.25c-.09.55-.18,1.15-.26,1.78Z"/>
    <path class="cls-3" d="M138.12,96.01c.6.2,1.12.36,1.56.5.45.14.86.26,1.24.37.38.11.78.21,1.19.3.04.01.08.03.11.05.03,0,.05,0,.07.01.13.04.23.12.3.24.07.12.08.25.04.38-.53,1.78-.94,3.07-1.23,3.88-.06.16-.15.26-.27.3-.12.04-.25.04-.37,0-.12-.04-.22-.12-.28-.23-.07-.11-.07-.25-.01-.4.29-.79.64-1.9,1.07-3.33-.61-.15-1.27-.34-1.99-.56-.13.42-.42,1.37-.87,2.84-.05.16-.14.26-.26.31-.12.05-.25.05-.37.02-.13-.04-.23-.11-.3-.22-.07-.11-.08-.24-.03-.39.45-1.48.74-2.43.88-2.86-.21-.07-.6-.19-1.16-.38-.57-.19-1.01-.33-1.31-.43-.16-.05-.26-.14-.31-.26-.05-.12-.05-.24-.01-.37.04-.13.12-.23.22-.3s.24-.08.4-.03c.25.08.82.27,1.71.56Z"/>
    <path class="cls-3" d="M133.33,107.92c.54.32,1.01.59,1.42.83s.78.44,1.13.63c.35.19.71.37,1.1.55.03.02.07.04.1.07.03,0,.05.02.07.03.12.07.2.17.24.3s.02.26-.05.38c-.9,1.62-1.58,2.79-2.04,3.52-.09.14-.2.22-.33.23-.13.01-.25-.01-.36-.08-.11-.07-.19-.16-.23-.29-.04-.12-.02-.25.07-.4.45-.71,1.04-1.72,1.76-3.02-.56-.28-1.17-.61-1.83-.98-.22.38-.71,1.24-1.46,2.58-.08.14-.19.23-.32.25-.13.02-.25,0-.37-.06-.12-.06-.2-.16-.24-.28s-.03-.25.05-.39c.76-1.35,1.25-2.22,1.47-2.6-.19-.11-.54-.32-1.05-.62-.52-.31-.91-.54-1.19-.7-.14-.08-.23-.19-.25-.32-.02-.13,0-.25.07-.37.07-.12.16-.2.28-.24s.26-.03.4.06c.23.13.74.44,1.55.92Z"/>
    <path class="cls-3" d="M126.94,113.73c.08-.1.19-.15.32-.17.13-.02.25.01.36.09.03.02.06.03.08.05.31.23,1.03.77,2.16,1.61,1.13.84,2.05,1.54,2.76,2.09.13.1.2.22.21.35,0,.13-.03.25-.12.35-.08.11-.19.17-.31.2-.13.03-.26,0-.39-.11-.53-.41-1.05-.8-1.55-1.17-.32-.25-.66-.51-1.04-.78-.38-.28-.75-.55-1.1-.81-.35-.26-.65-.49-.89-.68-.22.27-.54.69-.97,1.27-.43.57-.76,1-.99,1.29-.1.13-.22.2-.34.2s-.24-.04-.35-.12-.17-.19-.19-.32c-.03-.13,0-.26.11-.38.23-.28.6-.78,1.12-1.48.52-.69.9-1.18,1.14-1.46Z"/>
    <path class="cls-3" d="M121.98,119.98c.3-.1.59-.15.87-.15.28,0,.57.05.85.13.29.08.55.19.79.35.24.15.47.32.69.52.22.19.41.4.58.62.21.28.39.57.53.89.14.32.24.65.3,1,.06.35.06.68.01,1.02-.05.33-.17.64-.36.96s-.41.6-.65.85c-.11.12-.23.23-.37.33-.26.2-.49.34-.68.43-.44.21-.88.31-1.31.29-.44-.02-.84-.12-1.2-.3-.37-.19-.7-.43-1-.74-.3-.31-.56-.64-.77-1.01-.21-.37-.37-.77-.48-1.19-.11-.42-.13-.85-.07-1.28.06-.44.21-.85.45-1.25.24-.4.56-.74.94-1.02.28-.21.57-.36.88-.46ZM120.73,122.76c-.13.64,0,1.29.41,1.94.24.4.53.72.85.98.32.25.66.41,1.04.47s.72.03,1.04-.11c.15-.06.27-.12.35-.17.08-.05.16-.12.25-.2.07-.07.15-.14.24-.22.1-.08.21-.21.34-.37.16-.2.27-.47.32-.8.06-.33.04-.7-.05-1.08-.09-.39-.28-.76-.56-1.12-.29-.38-.62-.68-.98-.9-.36-.23-.74-.33-1.13-.3-.38.03-.76.16-1.14.41-.52.35-.85.84-.97,1.48Z"/>
    <path class="cls-3" d="M112.05,128.04l3.94,1.17.35-1.3c-.46-.63-.86-1.18-1.21-1.63-.1-.13-.14-.26-.11-.39.03-.13.09-.23.19-.31s.22-.12.35-.12c.13,0,.25.07.35.2.25.32.48.63.71.94.28.39.57.79.86,1.2.29.41.52.72.68.95.1.14.32.43.66.86.33.43.59.77.77,1.04.1.14.13.27.09.39-.04.12-.11.22-.22.3-.11.07-.23.1-.36.09-.13-.01-.24-.08-.34-.22-.18-.26-.43-.61-.76-1.03s-.54-.7-.64-.84c-.08-.12-.18-.25-.28-.38-.35,1.32-.63,2.8-.85,4.45-.02.16-.09.28-.2.35s-.23.1-.36.08c-.13-.02-.24-.07-.33-.17-.09-.09-.12-.22-.1-.39.13-1.11.31-2.14.52-3.1l-3.98-1.19c-.16-.04-.27-.12-.32-.24-.05-.12-.06-.24-.02-.37s.11-.23.22-.3c.11-.08.24-.09.4-.05Z"/>
    <path class="cls-3" d="M104.82,132.01l3.73,1.73.54-1.24c-.36-.69-.68-1.29-.96-1.79-.08-.15-.1-.28-.05-.4.05-.12.13-.22.24-.28.11-.07.23-.09.36-.07.13.02.24.1.32.25.2.35.39.69.57,1.03.22.42.45.86.67,1.31.23.45.41.79.54,1.04.08.16.25.47.53.95.27.47.47.85.62,1.15.08.15.09.28.03.4-.05.12-.14.2-.26.26-.12.06-.25.07-.37.04-.13-.03-.23-.12-.3-.26-.14-.29-.34-.66-.61-1.13-.27-.46-.44-.77-.52-.93-.07-.13-.14-.27-.22-.41-.54,1.25-1.03,2.68-1.48,4.29-.05.16-.13.26-.25.32-.12.05-.24.06-.37.02-.13-.04-.23-.11-.31-.21-.08-.11-.09-.24-.04-.4.29-1.08.61-2.07.96-2.99l-3.77-1.75c-.15-.06-.25-.16-.28-.28s-.02-.25.03-.36c.06-.12.14-.21.26-.27.12-.06.25-.06.4.01Z"/>
    <path class="cls-3" d="M100.94,133.47c.13-.04.25-.03.38.03.12.06.21.16.25.29.06.06.11.14.14.22.13.43.33,1.06.6,1.87.27.81.45,1.36.54,1.65.06.18.13.39.21.62.08.23.16.47.23.7.08.23.13.45.16.65.02.09,0,.18-.03.28s-.1.16-.18.22c-.06.1-.14.18-.26.22-.19.07-.42.15-.68.25-.27.09-.55.19-.86.3-.31.11-.61.21-.9.31-.29.1-.56.19-.79.27-.23.08-.41.14-.54.18-.16.05-.29.04-.4-.02-.11-.07-.19-.17-.23-.29s-.04-.25,0-.37c.05-.12.15-.21.31-.26.17-.06.41-.14.71-.24.3-.1.63-.22.98-.33.35-.12.69-.24,1.02-.35.33-.12.6-.21.81-.28-.01-.09-.09-.34-.23-.72-.14-.4-.23-.67-.29-.82l-.13-.39c-.3.12-.63.24-.99.36-.23.08-.49.16-.76.25-.27.09-.53.17-.79.25-.25.08-.46.15-.64.21-.16.05-.29.05-.4-.02-.11-.07-.19-.17-.23-.29-.04-.13-.04-.25,0-.37.05-.12.15-.21.31-.26.22-.07.55-.18,1-.32.23-.07.48-.15.76-.24.27-.09.54-.18.8-.27.26-.09.47-.17.63-.24-.3-.9-.51-1.54-.64-1.93-1.55.49-2.74.88-3.58,1.18-.15.05-.28.04-.4-.02-.11-.07-.19-.16-.24-.29-.04-.12-.05-.25,0-.37s.15-.21.3-.26c.85-.3,2.2-.74,4.04-1.32Z"/>
    <path class="cls-3" d="M88.46,136.49c.18-.07.35-.04.5.09.21.19.44.4.68.64.24.24.44.45.6.62l.62.7.57.63c.56.62,1.2,1.25,1.91,1.92-.09-.55-.24-1.36-.45-2.42-.21-1.06-.35-1.84-.44-2.35-.03-.16,0-.3.09-.39s.19-.16.32-.18c.13-.02.25,0,.37.07.11.07.18.18.21.34.07.39.23,1.29.5,2.67.27,1.38.45,2.45.55,3.2,0,.1,0,.21-.02.32-.02.1-.07.2-.15.31-.09.09-.21.14-.35.15-.14.01-.26-.03-.37-.12-1.13-1.01-2.1-1.95-2.92-2.84l-.51-.57-.59-.65-.51-.53c.34,2.19.61,3.83.81,4.9.03.16,0,.29-.09.39-.08.1-.19.17-.32.19-.13.03-.25,0-.36-.05-.11-.06-.18-.18-.21-.34-.15-.82-.49-2.86-1-6.12-.02-.13,0-.25.09-.37.08-.11.19-.18.32-.2.05,0,.09,0,.13,0Z"/>
    <path class="cls-3" d="M78.91,137.46c.02-.15.08-.28.2-.38.11-.1.24-.16.39-.17.15,0,.29.05.41.19.14.14.19.29.17.43-.02.15-.09.27-.2.37-.11.1-.24.16-.38.17-.15,0-.28-.05-.41-.19-.14-.14-.2-.28-.18-.43Z"/>
    <path class="cls-3" d="M69.34,138.31l.62-.33s.03-.02.04-.02c.12-.51.24-1.02.38-1.55.04-.16.12-.27.24-.32.12-.05.24-.06.37-.03s.23.1.31.21c.08.1.1.23.06.39-.38,1.49-.82,3.49-1.33,6.01-.03.16-.11.28-.22.34-.11.06-.24.08-.37.05-.13-.03-.24-.09-.32-.19s-.11-.23-.07-.4c.26-1.28.48-2.35.67-3.21-1.12.6-1.89,1.04-2.33,1.32-.13.1-.26.14-.38.11-.13-.03-.23-.1-.31-.2s-.11-.23-.11-.36c0-.13.07-.25.21-.34.39-.25.94-.58,1.66-.98-.25-.8-.66-1.69-1.23-2.67-.09-.14-.11-.27-.06-.39s.12-.21.24-.28c.12-.07.24-.09.37-.07.13.02.23.1.31.25.58.98,1.01,1.88,1.27,2.69Z"/>
    <path class="cls-3" d="M63.98,136.95c-.1.41-.26.88-.47,1.41-.14.35-.33.81-.59,1.39-.25.58-.41.96-.48,1.14-.06.16-.14.26-.27.3-.12.04-.24.04-.37,0-.12-.05-.22-.13-.29-.24-.06-.12-.07-.25-.02-.4.07-.17.22-.55.48-1.14.26-.59.46-1.06.59-1.4.2-.5.34-.92.42-1.28.1-.4.12-.68.08-.85-.11-.39-.33-.71-.68-.94-.23-.16-.47-.26-.74-.32-.27-.06-.53-.06-.79,0s-.5.17-.72.33c-.52.38-.94,1.01-1.27,1.88-.12.31-.25.73-.41,1.25-.2.68-.32,1.1-.37,1.27-.05.15-.14.25-.26.3-.12.05-.25.05-.38.01-.13-.04-.22-.12-.29-.23-.07-.11-.07-.24-.02-.4.05-.15.17-.56.37-1.23.16-.55.3-1,.43-1.34.4-1.04.93-1.81,1.59-2.32.37-.27.78-.44,1.26-.51s.92-.04,1.35.09c.43.12.82.35,1.17.68s.59.74.71,1.22c.09.33.07.78-.06,1.34Z"/>
    <path class="cls-3" d="M51.82,128.88c.19.06.3.19.34.38.05.28.1.59.14.93.04.34.07.62.08.86l.06.93.06.85c.06.83.16,1.73.3,2.69.28-.49.66-1.21,1.15-2.18.5-.96.87-1.67,1.11-2.11.08-.15.18-.23.31-.26.13-.03.25,0,.37.06.12.06.2.16.25.28.05.12.03.25-.05.4-.19.35-.61,1.15-1.26,2.41-.65,1.25-1.17,2.2-1.55,2.85-.05.08-.12.16-.21.24-.07.07-.18.12-.31.15-.13.01-.25-.02-.37-.1-.12-.08-.19-.19-.21-.32-.26-1.49-.44-2.84-.52-4.04l-.05-.77-.06-.88-.07-.73c-1.1,1.93-1.9,3.38-2.41,4.35-.08.14-.18.22-.31.25-.13.03-.25.01-.37-.05-.12-.06-.2-.15-.25-.27-.05-.12-.03-.25.05-.4.39-.74,1.39-2.54,3.01-5.42.06-.12.16-.19.3-.23.13-.04.26-.02.38.04.04.02.08.05.1.08Z"/>
    <path class="cls-3" d="M47.57,126.27c.19.37.28.75.25,1.14-.02.39-.16.75-.41,1.08-.1.13-.22.2-.36.21s-.27-.02-.38-.11c-.08-.06-.14-.15-.17-.25-.03-.11,0-.22.06-.34.45-.74.27-1.42-.54-2.03-.39-.29-.76-.44-1.11-.44s-.63.13-.83.4c-.12.16-.15.35-.08.58.07.23.21.48.41.77l.18.28c.39.58.66,1,.8,1.29.41.82.38,1.53-.07,2.11-.2.26-.48.45-.84.57-.36.11-.74.13-1.16.05-.42-.08-.82-.27-1.19-.55-.39-.3-.69-.64-.89-1.02-.2-.38-.29-.75-.28-1.12.01-.37.12-.69.33-.96.1-.14.23-.22.36-.23.14-.02.26.01.37.1.11.08.17.19.18.32.02.13-.03.26-.12.39-.1.13-.14.3-.13.52.02.21.1.43.24.65s.32.42.54.6c.39.3.74.45,1.03.46.29.01.54-.1.73-.33.1-.12.15-.26.14-.42s-.07-.36-.17-.6c-.1-.22-.22-.44-.35-.66-.13-.22-.32-.51-.55-.86-.32-.47-.51-.91-.59-1.33-.08-.42.03-.82.3-1.18.26-.34.59-.56.99-.67.4-.11.82-.1,1.25,0,.43.11.84.3,1.21.59.38.29.66.62.85,1Z"/>
    <path class="cls-3" d="M40.53,120.15c.13.01.24.07.33.17s.14.21.15.34c0,.13-.04.25-.16.37-.17.16-.83.83-1.99,2.01-.85.86-1.52,1.5-2.02,1.94.51.52.95.95,1.32,1.29.12.11.18.23.17.36,0,.13-.05.24-.14.34s-.2.15-.33.17c-.13.02-.26-.03-.38-.13-.42-.39-.99-.95-1.7-1.68s-1.28-1.29-1.69-1.69c-.11-.11-.17-.24-.16-.37s.06-.25.15-.34.2-.15.33-.17c.13-.01.25.04.37.16.34.33.79.78,1.36,1.35.49-.42,1.16-1.06,2.01-1.92,1.16-1.18,1.84-1.86,2.01-2.03.12-.12.24-.17.37-.16Z"/>
    <path class="cls-3" d="M34.01,112.44l-1.05,3.97,1.31.31c.62-.47,1.15-.89,1.59-1.26.13-.11.26-.15.38-.12.13.02.23.09.32.18.09.1.13.21.13.34,0,.13-.06.25-.19.35-.31.26-.61.5-.92.74-.38.29-.77.59-1.17.89s-.71.54-.93.71c-.14.1-.42.33-.84.68-.42.35-.76.61-1.02.81-.13.1-.26.13-.39.1-.12-.03-.22-.1-.3-.21-.08-.11-.11-.23-.1-.36s.08-.25.21-.34c.26-.19.59-.45,1-.79s.68-.57.82-.67c.12-.09.24-.19.37-.29-1.33-.31-2.82-.55-4.48-.71-.16-.02-.28-.08-.36-.19-.07-.11-.1-.23-.09-.36.01-.13.07-.24.16-.34.09-.09.22-.13.38-.11,1.11.1,2.15.24,3.11.42l1.07-4.02c.04-.16.11-.27.23-.32s.24-.07.37-.03c.13.03.23.1.31.21.08.11.1.24.06.39Z"/>
    <path class="cls-3" d="M31.44,108.45c.02.32-.01.61-.09.88-.08.27-.2.53-.35.78-.15.25-.33.47-.55.66-.21.19-.44.36-.68.52s-.5.29-.76.39c-.32.13-.66.22-1,.27s-.69.06-1.04.02c-.35-.04-.67-.13-.98-.27-.3-.13-.57-.33-.82-.6-.25-.27-.46-.55-.64-.86-.08-.14-.16-.29-.22-.45-.12-.31-.2-.56-.23-.77-.08-.48-.06-.93.08-1.34s.34-.77.61-1.07c.28-.3.61-.55.98-.76.38-.21.77-.36,1.18-.47.41-.1.84-.15,1.28-.14.44,0,.85.1,1.25.28.4.18.76.43,1.08.78.32.34.56.74.72,1.19.12.33.19.65.2.97ZM29.11,106.49c-.58-.3-1.24-.35-1.98-.14-.45.13-.84.31-1.17.55-.33.24-.57.53-.73.87-.16.34-.22.69-.18,1.03.02.16.04.29.07.38.02.09.07.19.13.3.05.09.1.19.15.29.05.12.14.26.26.43.15.21.38.38.68.53.3.15.66.23,1.06.24.4.02.81-.06,1.23-.23.44-.18.82-.41,1.14-.7.32-.29.51-.62.6-1.01.08-.38.05-.78-.08-1.21-.19-.6-.58-1.05-1.16-1.34Z"/>
    <path class="cls-3" d="M27.93,100.47c.04.12.03.24-.03.36-.05.12-.14.2-.26.25-.03.02-.06.03-.08.04-.36.14-1.2.45-2.52.95-1.32.5-2.4.9-3.24,1.2-.16.06-.29.05-.4-.02-.11-.07-.19-.16-.24-.29s-.04-.25,0-.37c.04-.12.15-.21.3-.27.63-.23,1.24-.45,1.82-.67.38-.13.78-.29,1.22-.46.44-.17.86-.33,1.28-.49s.76-.28,1.05-.39c-.11-.33-.29-.83-.55-1.5-.25-.67-.44-1.18-.56-1.53-.06-.16-.05-.29.02-.4.07-.11.16-.18.29-.23s.25-.04.38,0c.12.05.21.15.27.3.12.34.33.92.65,1.75.3.81.51,1.39.61,1.75Z"/>
    <path class="cls-3" d="M25.69,93.27c.02.12,0,.24-.07.35-.07.11-.17.18-.3.22-.03.01-.06.02-.09.03-.38.09-1.25.29-2.62.61-1.38.32-2.5.57-3.38.76-.16.03-.3.01-.4-.07-.1-.08-.17-.19-.2-.32-.03-.13-.01-.25.05-.37.06-.11.17-.19.33-.22.66-.14,1.29-.28,1.89-.42.39-.08.82-.18,1.27-.29.46-.11.9-.22,1.33-.31.43-.1.79-.18,1.09-.24-.07-.34-.18-.86-.34-1.56-.16-.69-.28-1.23-.35-1.59-.04-.16-.01-.29.07-.39.08-.1.19-.16.32-.18.13-.02.25,0,.37.06.12.06.19.17.22.33.07.35.2.96.41,1.82.19.84.32,1.45.38,1.81Z"/>
    <path class="cls-3" d="M24.35,85.86c0,.13-.03.25-.12.35-.09.1-.21.16-.34.17-.08.05-.16.07-.25.08-.45.02-1.11.06-1.96.12-.85.06-1.43.1-1.74.11-.19.01-.41.03-.66.05-.25.02-.49.04-.74.05s-.47.01-.67,0c-.09,0-.18-.04-.26-.1-.08-.06-.13-.14-.17-.23-.09-.08-.14-.18-.15-.31-.02-.2-.04-.44-.07-.72-.02-.28-.05-.58-.07-.91-.03-.32-.05-.64-.08-.95-.03-.31-.05-.59-.06-.83s-.03-.44-.04-.57c-.01-.17.03-.29.12-.38s.21-.14.34-.15c.13,0,.25.02.36.1s.16.2.18.36c.01.18.03.43.06.75.03.32.05.66.08,1.03.03.37.05.73.08,1.07.03.35.05.63.07.86.09.01.35,0,.76-.04.42-.04.71-.06.87-.07l.41-.03c-.04-.32-.08-.67-.1-1.05-.02-.25-.03-.51-.05-.8s-.03-.56-.05-.82c-.02-.26-.03-.49-.04-.67-.01-.17.03-.29.12-.38s.21-.14.34-.15c.13,0,.25.02.36.1s.16.2.18.36c.02.23.04.58.06,1.05,0,.24.02.5.04.79.02.29.04.57.06.84.02.27.05.5.07.67.94-.07,1.62-.11,2.03-.13-.09-1.62-.17-2.88-.24-3.76-.01-.16.03-.29.12-.38.09-.09.21-.15.34-.16.13-.01.25.02.36.09.11.07.16.19.18.36.08.9.17,2.31.27,4.24Z"/>
    <path class="cls-3" d="M24.3,73.39l-3.41,2.29.78,1.1c.78.05,1.45.08,2.03.1.17,0,.29.06.37.16.08.1.12.22.12.35,0,.13-.04.25-.13.35-.08.1-.21.15-.38.14-.4,0-.79-.03-1.18-.05-.48-.03-.97-.06-1.47-.1-.5-.04-.89-.06-1.17-.08-.17-.01-.53-.03-1.08-.04-.54-.01-.97-.04-1.3-.07-.17-.01-.29-.07-.36-.18-.07-.11-.1-.22-.09-.36.01-.13.07-.25.16-.34.09-.09.22-.13.38-.12.32.03.75.05,1.28.07.53.01.89.03,1.06.04.15.01.3.02.47.02-.79-1.11-1.76-2.27-2.9-3.48-.11-.12-.16-.25-.14-.38.02-.13.07-.24.17-.33.1-.09.21-.14.34-.15.13,0,.25.05.36.17.77.81,1.46,1.59,2.06,2.37l3.45-2.32c.13-.1.26-.13.39-.09.12.04.22.11.29.22s.1.23.09.36c0,.13-.08.25-.21.34Z"/>
    <path class="cls-3" d="M25.39,67.52c.06.12.07.24.04.37-.03.13-.1.23-.21.31-.11.08-.24.1-.39.07-.23-.06-1.15-.25-2.77-.59-1.18-.25-2.09-.47-2.72-.66-.16.71-.29,1.31-.37,1.8-.03.16-.1.28-.21.34-.11.06-.23.08-.36.06s-.24-.09-.32-.19-.12-.23-.09-.39c.1-.56.27-1.34.49-2.34s.39-1.77.51-2.33c.03-.16.11-.27.22-.33s.24-.08.37-.06.24.09.32.19c.08.1.1.23.07.39-.09.46-.23,1.09-.4,1.88.62.18,1.52.4,2.7.65,1.62.34,2.56.54,2.8.6.16.04.27.11.33.23Z"/>
    <path class="cls-3" d="M26.72,62.63c-.12.05-.24.06-.37.02-.12-.04-.22-.11-.3-.22-.08-.11-.09-.24-.04-.4l.06-.21c-1.96-.67-3.6-1.22-4.9-1.65l-.05.15c-.05.16-.14.26-.26.3-.12.04-.24.04-.37,0-.12-.05-.22-.13-.29-.24-.07-.11-.08-.25-.02-.4.12-.32.26-.71.42-1.17.05-.15.14-.25.26-.3.12-.05.25-.05.37,0,.12.05.22.12.29.24.07.11.07.25.02.4l-.03.08c1.3.43,2.92.97,4.87,1.64l.06-.19c.05-.16.14-.26.26-.31.12-.05.25-.05.37,0s.22.12.29.23c.07.11.08.25.02.4-.17.49-.31.92-.43,1.31-.05.16-.13.27-.25.32Z"/>
    <path class="cls-3" d="M27.93,55.95l-1.07-.08-2.29-.16-2.09-.23c-.16-.02-.28-.08-.35-.18-.08-.11-.11-.22-.1-.35,0-.13.06-.24.15-.33s.22-.14.38-.13l2.54.26c1.22.1,2.18.16,2.86.19l-1.42-1.49c-1-1.03-1.77-1.85-2.32-2.48-.1-.13-.14-.26-.12-.38.02-.13.08-.23.18-.32.1-.08.21-.13.34-.14s.25.05.36.18c.52.6,1.28,1.41,2.28,2.44,1.08,1.13,1.83,1.93,2.26,2.41.09.1.13.22.13.36,0,.14-.06.25-.16.34-.15.14-.66.17-1.55.1Z"/>
    <path class="cls-3" d="M32.53,50.06c-.07.11-.18.18-.32.21s-.26,0-.37-.07c-.09-.01-.17-.04-.24-.09-.37-.26-.91-.63-1.62-1.1s-1.19-.79-1.44-.97c-.16-.11-.35-.23-.55-.36s-.41-.27-.62-.41c-.2-.14-.38-.28-.53-.42-.07-.06-.12-.14-.14-.24-.02-.1-.02-.19,0-.28-.02-.12,0-.23.07-.34.11-.17.23-.37.39-.61.15-.24.32-.49.49-.76.18-.27.35-.54.52-.8.17-.26.32-.49.46-.7.14-.21.24-.36.32-.48.09-.14.2-.21.33-.23.13-.01.25.02.36.09.11.07.18.17.22.3.04.12,0,.26-.08.39-.1.15-.24.36-.41.63s-.36.56-.57.87-.4.61-.59.9c-.19.29-.34.53-.47.72.07.07.28.21.63.43.35.23.6.38.73.47l.34.23c.16-.28.35-.58.56-.89.14-.21.29-.43.45-.66s.32-.46.46-.68.27-.4.38-.56c.09-.14.2-.22.33-.23.13-.01.25.02.36.09.11.07.19.17.22.3s0,.26-.08.4c-.13.19-.33.48-.59.87-.14.2-.29.42-.45.66-.16.24-.31.48-.46.71-.15.23-.27.42-.35.57.79.52,1.35.9,1.69,1.13.92-1.34,1.62-2.38,2.1-3.13.09-.13.2-.21.33-.23s.25.01.37.08c.11.07.19.17.23.29s.01.25-.08.39c-.49.76-1.28,1.93-2.38,3.52Z"/>
    <path class="cls-3" d="M38.62,41.88c0,.13-.06.24-.15.34-.09.1-.2.15-.33.17-.13.02-.26-.03-.38-.13-.17-.16-.88-.78-2.12-1.87-.91-.8-1.59-1.43-2.05-1.91-.49.54-.89,1-1.21,1.39-.11.13-.22.19-.35.19-.13,0-.25-.04-.34-.12-.1-.08-.16-.19-.19-.32s.01-.26.11-.38c.37-.44.89-1.04,1.57-1.8.68-.76,1.21-1.35,1.59-1.79.11-.12.23-.18.36-.18.13,0,.25.05.35.13.1.09.16.19.18.32.02.13-.02.25-.13.38-.31.36-.73.84-1.27,1.44.45.46,1.13,1.09,2.04,1.89,1.25,1.09,1.96,1.72,2.14,1.89.12.11.18.23.18.36Z"/>
    <path class="cls-3" d="M46.26,34.24c.08.13.11.27.09.42s-.09.28-.2.38-.26.14-.44.11c-.2-.02-.33-.1-.41-.23s-.1-.27-.08-.42c.02-.15.08-.27.19-.38s.25-.14.43-.11c.19.02.33.09.41.22Z"/>
  </g>
</svg>