<?xml version="1.0" encoding="UTF-8"?>
<svg id="Layer_1" data-name="Layer 1" xmlns="http://www.w3.org/2000/svg" viewBox="0 0 160 160">
  <defs>
    <style>
      .cls-1 {
        fill: none;
        stroke: #683a22;
        stroke-miterlimit: 10;
        stroke-width: .75px;
      }
    </style>
  </defs>
  <path class="cls-1" d="M84.2,126.7c3.79,6.42-3.13,11.33-8.92-1.1-4.6-9.88-10.15-8.72-13.85-18.11-3.71-9.41,1.17-20.11,11.98-24.36,9.92-3.9,17.94-.3,21.01.37,2.41.53,5.33,1.12,7.69,1.48,23.03,3.46,50.33-27.49,36.81-23.77-13.51,3.73-44.83-12.62-46.54-14.27-3.81-3.7-1.3-27.23-12.48-40.25-11.18-13.02,1.7,41.01-9.95,40.54s-2.58-55.34-12.58-39.61c-5.32,8.37-11.76,29.9-15.18,37.4-.65,1.42-2.07,3.1-3.55,4.78-5.79,6.55-9.7,13.3-13.99,18.52-5.99,7.3-16.57,29.43-12.47,49.59,4.23,20.78,25.93,33.97,55.24,36.56,10.15,1.19,73.81,3.66,80.62-12.37,8.14-19.16-59.26-55.33-46.52-41.48,26.22,28.51-22.63,17.09-17.33,26.09Z"/>
</svg>